<svg width="14" height="14" viewBox="0 0 14 14" fill="none" xmlns="http://www.w3.org/2000/svg">
<path d="M7.49558 0.962402C3.9112 0.962402 0.995575 3.87803 0.995575 7.4624C0.995575 11.0468 3.9112 13.9624 7.49558 13.9624C11.08 13.9624 13.9956 11.0468 13.9956 7.4624C13.9956 3.87803 11.08 0.962402 7.49558 0.962402ZM11.794 3.95928C12.5675 4.90459 13.0362 6.10772 13.0471 7.41865C12.8643 7.37959 11.0284 7.00771 9.18151 7.24053C9.14245 7.14521 9.10339 7.0499 9.06276 6.95459C8.94714 6.68428 8.8237 6.41396 8.69401 6.1499C10.7456 5.31084 11.6768 4.11865 11.794 3.95928ZM7.49558 1.91865C8.90651 1.91865 10.1956 2.44834 11.1753 3.31709C11.0753 3.45928 10.2393 4.58272 8.26589 5.32334C7.35651 3.65146 6.3487 2.27959 6.19401 2.07334C6.62058 1.97021 7.05651 1.91865 7.49558 1.91865ZM5.13464 2.44678C5.28151 2.64678 6.2737 4.02334 7.19245 5.65771C4.59558 6.34678 2.30808 6.3374 2.05964 6.33428C2.42058 4.61084 3.58151 3.17959 5.13464 2.44678ZM1.94401 7.47021C1.94401 7.41396 1.94557 7.35615 1.94714 7.2999C2.18932 7.30459 4.87995 7.33896 7.65339 6.50928C7.81276 6.82021 7.96433 7.13584 8.10339 7.45146C8.02995 7.47178 7.95651 7.49365 7.88464 7.51709C5.02058 8.44521 3.49714 10.9687 3.37058 11.1827C2.48464 10.1983 1.94401 8.89678 1.94401 7.47021ZM7.49558 13.0218C6.2112 13.0218 5.02839 12.5843 4.08776 11.8499C4.18776 11.6452 5.3112 9.4749 8.44245 8.38272L8.47839 8.37021C9.25808 10.3952 9.57995 12.0937 9.66276 12.5812C8.97785 12.8739 8.24042 13.0238 7.49558 13.0218ZM10.5971 12.0733C10.5409 11.7358 10.2456 10.1108 9.51901 8.11553C11.2596 7.8374 12.7878 8.29365 12.9768 8.35303C12.73 9.89678 11.844 11.2312 10.5971 12.0733Z" fill="#333333"/>
</svg>
