<svg width="13" height="13" viewBox="0 0 13 13" fill="none" xmlns="http://www.w3.org/2000/svg">
<path d="M6.28679 3.25789C4.51335 3.25789 3.0821 4.68914 3.0821 6.46257C3.0821 8.23601 4.51335 9.66726 6.28679 9.66726C8.06023 9.66726 9.49148 8.23601 9.49148 6.46257C9.49148 4.68914 8.06023 3.25789 6.28679 3.25789ZM6.28679 8.54538C5.13991 8.54538 4.20398 7.60945 4.20398 6.46257C4.20398 5.3157 5.13991 4.37976 6.28679 4.37976C7.43367 4.37976 8.36961 5.3157 8.36961 6.46257C8.36961 7.60945 7.43367 8.54538 6.28679 8.54538ZM9.62273 2.37976C9.20867 2.37976 8.87429 2.71414 8.87429 3.1282C8.87429 3.54226 9.20867 3.87664 9.62273 3.87664C10.0368 3.87664 10.3712 3.54382 10.3712 3.1282C10.3713 3.02988 10.352 2.9325 10.3144 2.84164C10.2769 2.75078 10.2218 2.66822 10.1522 2.5987C10.0827 2.52917 10.0002 2.47405 9.90929 2.43648C9.81843 2.39891 9.72105 2.37964 9.62273 2.37976ZM12.5337 6.46257C12.5337 5.60007 12.5415 4.74539 12.493 3.88445C12.4446 2.88445 12.2165 1.99695 11.4852 1.2657C10.7524 0.532886 9.86648 0.306324 8.86648 0.257887C8.00398 0.209449 7.14929 0.217262 6.28835 0.217262C5.42585 0.217262 4.57117 0.209449 3.71023 0.257887C2.71023 0.306324 1.82273 0.534449 1.09148 1.2657C0.358662 1.99851 0.132099 2.88445 0.0836618 3.88445C0.0352243 4.74695 0.0430368 5.60163 0.0430368 6.46257C0.0430368 7.32351 0.0352243 8.17976 0.0836618 9.0407C0.132099 10.0407 0.360225 10.9282 1.09148 11.6594C1.82429 12.3923 2.71023 12.6188 3.71023 12.6673C4.57273 12.7157 5.42741 12.7079 6.28835 12.7079C7.15085 12.7079 8.00554 12.7157 8.86648 12.6673C9.86648 12.6188 10.754 12.3907 11.4852 11.6594C12.218 10.9266 12.4446 10.0407 12.493 9.0407C12.543 8.17976 12.5337 7.32507 12.5337 6.46257ZM11.1587 10.1469C11.0446 10.4313 10.9071 10.6438 10.6868 10.8626C10.4665 11.0829 10.2555 11.2204 9.97117 11.3344C9.14929 11.661 7.19773 11.5876 6.28679 11.5876C5.37585 11.5876 3.42273 11.661 2.60085 11.336C2.31648 11.2219 2.10398 11.0844 1.88523 10.8641C1.66491 10.6438 1.52741 10.4329 1.41335 10.1485C1.08835 9.32507 1.16179 7.37351 1.16179 6.46257C1.16179 5.55163 1.08835 3.59851 1.41335 2.77664C1.52741 2.49226 1.66491 2.27976 1.88523 2.06101C2.10554 1.84226 2.31648 1.7032 2.60085 1.58914C3.42273 1.26414 5.37585 1.33757 6.28679 1.33757C7.19773 1.33757 9.15086 1.26414 9.97273 1.58914C10.2571 1.7032 10.4696 1.8407 10.6884 2.06101C10.9087 2.28132 11.0462 2.49226 11.1602 2.77664C11.4852 3.59851 11.4118 5.55163 11.4118 6.46257C11.4118 7.37351 11.4852 9.32507 11.1587 10.1469Z" fill="#333333"/>
</svg>
