<svg width="14" height="11" viewBox="0 0 14 11" fill="none" xmlns="http://www.w3.org/2000/svg">
<path d="M13.7078 2.50791C13.6281 2.2111 13.4719 1.94042 13.2547 1.72297C13.0375 1.50552 12.767 1.34892 12.4703 1.26885C11.3781 0.975098 7 0.975098 7 0.975098C7 0.975098 2.62187 0.975098 1.52969 1.26729C1.23284 1.3471 0.962226 1.50361 0.745009 1.7211C0.527792 1.93859 0.371624 2.2094 0.292187 2.50635C-5.96046e-08 3.6001 0 5.88135 0 5.88135C0 5.88135 -5.96046e-08 8.1626 0.292187 9.25479C0.453125 9.85791 0.928125 10.3329 1.52969 10.4938C2.62187 10.7876 7 10.7876 7 10.7876C7 10.7876 11.3781 10.7876 12.4703 10.4938C13.0734 10.3329 13.5469 9.85791 13.7078 9.25479C14 8.1626 14 5.88135 14 5.88135C14 5.88135 14 3.6001 13.7078 2.50791ZM5.60938 7.9751V3.7876L9.23438 5.86572L5.60938 7.9751Z" fill="#333333"/>
</svg>
