<svg width="10" height="13" viewBox="0 0 10 13" fill="none" xmlns="http://www.w3.org/2000/svg">
<path d="M0.0894284 4.7672C0.0894284 4.24854 0.180095 3.75854 0.358762 3.3012C0.529464 2.857 0.78308 2.44932 1.10609 2.09987C1.42845 1.75501 1.79734 1.4568 2.2021 1.21387C2.61737 0.962638 3.06696 0.773101 3.53676 0.651203C4.01224 0.526351 4.50183 0.463386 4.99343 0.46387C5.75276 0.46387 6.45943 0.624537 7.11476 0.944537C7.76154 1.2587 8.31205 1.74083 8.70876 2.34054C9.11809 2.95054 9.32143 3.64054 9.32143 4.40987C9.32143 4.8712 9.27609 5.32254 9.18343 5.76387C9.09244 6.20496 8.94781 6.63325 8.75276 7.0392C8.56685 7.43217 8.32377 7.79545 8.03143 8.1172C7.73761 8.43384 7.38179 8.68664 6.98609 8.85987C6.5565 9.04814 6.09177 9.14291 5.62276 9.13787C5.29676 9.13787 4.97143 9.0612 4.65009 8.9072C4.32876 8.75387 4.09809 8.5432 3.95943 8.2732C3.91076 8.46054 3.84409 8.7312 3.75543 9.0852C3.67009 9.43854 3.61276 9.66654 3.58743 9.76987C3.56076 9.87254 3.51143 10.0439 3.43943 10.2812C3.3906 10.4568 3.32796 10.6282 3.25209 10.7939L3.02276 11.2432C2.92358 11.436 2.81271 11.6226 2.69076 11.8019C2.57009 11.9765 2.42076 12.1852 2.24276 12.4252L2.14343 12.4605L2.07743 12.3885C2.00609 11.6332 1.96943 11.1812 1.96943 11.0319C1.96943 10.5899 2.02209 10.0939 2.12609 9.5432C2.22809 8.9932 2.38943 8.30187 2.6061 7.47054C2.82276 6.63987 2.94676 6.1512 2.98009 6.00654C2.82743 5.6952 2.75009 5.28854 2.75009 4.78854C2.75009 4.3892 2.87476 4.0152 3.12476 3.6632C3.37543 3.31254 3.69209 3.1372 4.07609 3.1372C4.37009 3.1372 4.59809 3.23454 4.76143 3.42987C4.92543 3.62454 5.00543 3.86987 5.00543 4.1692C5.00543 4.48654 4.90009 4.94587 4.68809 5.54654C4.47609 6.14787 4.37076 6.59654 4.37076 6.89454C4.37076 7.19654 4.47876 7.4492 4.69476 7.6472C4.90793 7.8453 5.18982 7.95266 5.48076 7.94654C5.74476 7.94654 5.98943 7.88654 6.21676 7.76587C6.44054 7.64874 6.63424 7.4815 6.78276 7.2772C7.10624 6.8334 7.33684 6.32889 7.46076 5.79387C7.52476 5.51254 7.57409 5.2452 7.60476 4.99387C7.63743 4.7412 7.65143 4.50254 7.65143 4.27587C7.65143 3.44454 7.38743 2.79654 6.86276 2.33254C6.33543 1.86854 5.64876 1.63787 4.80409 1.63787C3.84343 1.63787 3.04009 1.94854 2.39676 2.57187C1.75276 3.1932 1.42876 3.9832 1.42876 4.9412C1.42876 5.15254 1.46076 5.35654 1.52143 5.55387C1.58076 5.75054 1.64543 5.9072 1.71543 6.0232C1.78476 6.1372 1.8501 6.24854 1.90943 6.3512C1.96943 6.45387 2.00076 6.5272 2.00076 6.5712C2.00076 6.70587 1.96543 6.8812 1.89409 7.09787C1.82009 7.31454 1.73276 7.42254 1.62743 7.42254C1.61743 7.42254 1.57609 7.4152 1.50409 7.39987C1.25474 7.32543 1.02955 7.18626 0.851428 6.99654C0.662387 6.79991 0.513198 6.56854 0.412095 6.3152C0.31128 6.06277 0.232758 5.802 0.177428 5.53587C0.117649 5.28406 0.0881076 5.02601 0.0894284 4.7672Z" fill="#333333"/>
</svg>
