<svg width="14" height="15" viewBox="0 0 14 15" fill="none" xmlns="http://www.w3.org/2000/svg">
<path d="M3.134 14.8813H0.2315V5.53435H3.134V14.8813ZM1.681 4.25935C0.753 4.25935 0 3.49035 0 2.56235C0 2.11652 0.177105 1.68895 0.492354 1.3737C0.807602 1.05845 1.23517 0.881348 1.681 0.881348C2.12683 0.881348 2.5544 1.05845 2.86965 1.3737C3.1849 1.68895 3.362 2.11652 3.362 2.56235C3.362 3.49035 2.609 4.25935 1.681 4.25935ZM13.997 14.8813H11.101V10.3313C11.101 9.24685 11.079 7.85635 9.592 7.85635C8.083 7.85635 7.8515 9.03435 7.8515 10.2533V14.8813H4.952V5.53435H7.7355V6.80935H7.776C8.1635 6.07485 9.11 5.29985 10.522 5.29985C13.4595 5.29985 13.9995 7.23435 13.9995 9.74685V14.8813H13.997Z" fill="#333333"/>
</svg>
