<svg width="16" height="14" viewBox="0 0 16 14" fill="none" xmlns="http://www.w3.org/2000/svg">
<path d="M15.762 2.17257C15.2053 2.41924 14.6073 2.5859 13.9787 2.66124C14.6273 2.2731 15.1126 1.66221 15.344 0.94257C14.7346 1.30456 14.0676 1.55937 13.372 1.6959C12.9043 1.19648 12.2847 0.865454 11.6095 0.754219C10.9344 0.642984 10.2414 0.757764 9.63816 1.08074C9.03492 1.40371 8.55518 1.91681 8.27343 2.54037C7.99169 3.16393 7.92369 3.86307 8.08 4.52924C6.84512 4.46723 5.63708 4.14627 4.53428 3.58717C3.43148 3.02808 2.45856 2.24334 1.67866 1.2839C1.412 1.7439 1.25866 2.27724 1.25866 2.84524C1.25837 3.35657 1.38429 3.86006 1.62525 4.31106C1.86621 4.76205 2.21477 5.14659 2.64 5.43057C2.14685 5.41488 1.66458 5.28163 1.23333 5.0419V5.0819C1.23328 5.79906 1.48135 6.49415 1.93545 7.04923C2.38955 7.60431 3.02171 7.98519 3.72466 8.12724C3.26719 8.25105 2.78756 8.26928 2.322 8.18057C2.52033 8.79764 2.90666 9.33725 3.42691 9.72385C3.94716 10.1105 4.57528 10.3247 5.22333 10.3366C4.12322 11.2002 2.76459 11.6686 1.366 11.6666C1.11825 11.6666 0.870715 11.6522 0.624664 11.6232C2.04432 12.536 3.69689 13.0204 5.38467 13.0186C11.098 13.0186 14.2213 8.28657 14.2213 4.18257C14.2213 4.04924 14.218 3.91457 14.212 3.78124C14.8195 3.34189 15.3439 2.79783 15.7607 2.17457L15.762 2.17257Z" fill="#333333"/>
</svg>
