<svg width="14" height="14" viewBox="0 0 14 14" fill="none" xmlns="http://www.w3.org/2000/svg">
<path d="M6.99421 4.79431C5.84734 4.79431 4.9114 5.73025 4.9114 6.87712C4.9114 8.024 5.84734 8.95994 6.99421 8.95994C8.14109 8.95994 9.07703 8.024 9.07703 6.87712C9.07703 5.73025 8.14109 4.79431 6.99421 4.79431ZM13.2411 6.87712C13.2411 6.01462 13.2489 5.15994 13.2005 4.299C13.152 3.299 12.9239 2.4115 12.1927 1.68025C11.4598 0.947437 10.5739 0.720875 9.5739 0.672437C8.7114 0.624 7.85671 0.631812 6.99578 0.631812C6.13328 0.631812 5.27859 0.624 4.41765 0.672437C3.41765 0.720875 2.53015 0.949 1.7989 1.68025C1.06609 2.41306 0.839527 3.299 0.79109 4.299C0.742652 5.1615 0.750465 6.01619 0.750465 6.87712C0.750465 7.73806 0.742652 8.59431 0.79109 9.45525C0.839527 10.4552 1.06765 11.3427 1.7989 12.074C2.53171 12.8068 3.41765 13.0334 4.41765 13.0818C5.28015 13.1302 6.13484 13.1224 6.99578 13.1224C7.85828 13.1224 8.71296 13.1302 9.5739 13.0818C10.5739 13.0334 11.4614 12.8052 12.1927 12.074C12.9255 11.3412 13.152 10.4552 13.2005 9.45525C13.2505 8.59431 13.2411 7.73962 13.2411 6.87712ZM6.99421 10.0818C5.22078 10.0818 3.78953 8.65056 3.78953 6.87712C3.78953 5.10369 5.22078 3.67244 6.99421 3.67244C8.76765 3.67244 10.1989 5.10369 10.1989 6.87712C10.1989 8.65056 8.76765 10.0818 6.99421 10.0818ZM10.3302 4.28962C9.91609 4.28962 9.58171 3.95525 9.58171 3.54119C9.58171 3.12712 9.91609 2.79275 10.3302 2.79275C10.7442 2.79275 11.0786 3.12712 11.0786 3.54119C11.0787 3.63951 11.0594 3.73689 11.0219 3.82775C10.9843 3.91861 10.9292 4.00116 10.8597 4.07069C10.7901 4.14021 10.7076 4.19534 10.6167 4.2329C10.5259 4.27047 10.4285 4.28975 10.3302 4.28962Z" fill="#333333"/>
</svg>
